<svg xmlns="http://www.w3.org/2000/svg" viewBox="0 0 11.11 9.96">
  <linearGradient id="a" gradientUnits="userSpaceOnUse" x1=".9431" y1="4.9785" x2="10.4807" y2="4.9785">
    <stop offset="0" stop-color="#002747"/>
    <stop offset=".4644" stop-color="#001e3e"/>
    <stop offset=".9944" stop-color="#000d2d"/>
  </linearGradient>
  <path d="M10.48 4.98c0-2.63-2.14-4.77-4.77-4.77S.94 2.35.94 4.98s2.14 4.77 4.77 4.77 4.77-2.14 4.77-4.77zM5.71 9.21c-2.33 0-4.23-1.9-4.23-4.23 0-2.33 1.9-4.23 4.23-4.23 2.33 0 4.23 1.9 4.23 4.23 0 2.33-1.9 4.23-4.23 4.23z" fill="url(#a)"/>
  <linearGradient id="b" gradientUnits="userSpaceOnUse" x1="4.4938" y1="4.9783" x2="6.9302" y2="4.9783">
    <stop offset="0" stop-color="#002747"/>
    <stop offset=".4644" stop-color="#001e3e"/>
    <stop offset=".9944" stop-color="#000d2d"/>
  </linearGradient>
  <path d="M5.71 3.76c-.67 0-1.22.55-1.22 1.22 0 .67.55 1.22 1.22 1.22s1.22-.55 1.22-1.22c0-.67-.55-1.22-1.22-1.22z" fill="url(#b)"/>
  <linearGradient id="c" gradientUnits="userSpaceOnUse" x1="2.5187" y1="3.2905" x2="8.9056" y2="3.2905">
    <stop offset="0" stop-color="#002747"/>
    <stop offset=".4644" stop-color="#001e3e"/>
    <stop offset=".9944" stop-color="#000d2d"/>
  </linearGradient>
  <path d="M5.71 3.31c.86 0 1.57.66 1.65 1.5H8.9c-.08-1.69-1.47-3.04-3.19-3.04s-3.1 1.35-3.19 3.04h1.54c.08-.84.79-1.5 1.65-1.5z" fill="url(#c)"/>
  <linearGradient id="d" gradientUnits="userSpaceOnUse" x1="2.5182" y1="6.6638" x2="8.9061" y2="6.6638">
    <stop offset="0" stop-color="#002747"/>
    <stop offset=".4644" stop-color="#001e3e"/>
    <stop offset=".9944" stop-color="#000d2d"/>
  </linearGradient>
  <path d="M7.36 5.14c-.08.84-.78 1.51-1.65 1.51s-1.57-.67-1.65-1.51H2.52C2.6 6.83 4 8.19 5.71 8.19S8.82 6.83 8.9 5.14H7.36z" fill="url(#d)"/>
  <linearGradient id="e" gradientUnits="userSpaceOnUse" x1="4.2129" y1="1.8153" x2="8.4194" y2="1.8153">
    <stop offset="0" stop-color="#002747"/>
    <stop offset=".4644" stop-color="#001e3e"/>
    <stop offset=".9944" stop-color="#000d2d"/>
  </linearGradient>
  <path d="M5.71 1.46c.97 0 1.85.39 2.49 1.03l.22-.23c-.69-.69-1.65-1.12-2.71-1.12-.53 0-1.04.11-1.5.3l.14.29c.42-.17.88-.27 1.36-.27z" fill="url(#e)"/>
  <linearGradient id="f" gradientUnits="userSpaceOnUse" x1="2.1811" y1="7.0262" x2="3.2233" y2="7.0262">
    <stop offset="0" stop-color="#002747"/>
    <stop offset=".4644" stop-color="#001e3e"/>
    <stop offset=".9944" stop-color="#000d2d"/>
  </linearGradient>
  <path d="M2.18 6.48c.2.46.48.87.83 1.22l.22-.23c-.32-.32-.58-.7-.76-1.12l-.29.13z" fill="url(#f)"/>
  <linearGradient id="g" gradientUnits="userSpaceOnUse" x1="8.5862" y1="8.2486" x2="10.758" y2="8.2486">
    <stop offset="0" stop-color="#002747"/>
    <stop offset=".4644" stop-color="#001e3e"/>
    <stop offset=".9944" stop-color="#000d2d"/>
  </linearGradient>
  <path d="M10.45 6.98c-.39.92-1.04 1.7-1.86 2.26l.18.28c.88-.59 1.57-1.43 1.99-2.41l-.31-.13z" fill="url(#g)"/>
  <linearGradient id="h" gradientUnits="userSpaceOnUse" x1=".3513" y1="2.5226" x2="2.0685" y2="2.5226">
    <stop offset="0" stop-color="#002747"/>
    <stop offset=".4644" stop-color="#001e3e"/>
    <stop offset=".9944" stop-color="#000d2d"/>
  </linearGradient>
  <path d="M1.84 1.11C1.1 1.85.57 2.8.35 3.86l.33.08c.21-.99.7-1.88 1.39-2.58l-.23-.25z" fill="url(#h)"/>
</svg>