<svg id="Layer_1" xmlns="http://www.w3.org/2000/svg" viewBox="0 0 67.53 13.69">
  <style>
    .st19{fill:#afafaf}.st23{fill:none;stroke:#afafaf;stroke-width:.5;stroke-miterlimit:10}
  </style>
  <linearGradient id="SVGID_1_" gradientUnits="userSpaceOnUse" x1="4.6349" y1="6.5218" x2="5.1328" y2="6.5218">
    <stop offset="0" stop-color="#002747"/>
    <stop offset=".4644" stop-color="#001e3e"/>
    <stop offset=".9944" stop-color="#000d2d"/>
  </linearGradient>
  <path d="M4.89 6.24c.03.03.25.25.25.39s-.23.18-.25.18c-.02 0-.25-.04-.25-.18-.01-.14.21-.36.25-.39" fill="url(#SVGID_1_)"/>
  <linearGradient id="SVGID_2_" gradientUnits="userSpaceOnUse" x1="4.4351" y1="7.0157" x2="5.3326" y2="7.0157">
    <stop offset="0" stop-color="#002747"/>
    <stop offset=".4644" stop-color="#001e3e"/>
    <stop offset=".9944" stop-color="#000d2d"/>
  </linearGradient>
  <path d="M5.29 6.76c-.01-.01-.04-.01-.05 0-.05.06-.18.19-.36.19-.17 0-.31-.13-.35-.18-.01-.01-.03-.02-.05 0-.02.01-.04.06-.04.17 0 .34.45.34.45.34s.45 0 .45-.34c-.01-.11-.03-.16-.05-.18z" fill="url(#SVGID_2_)"/>
  <linearGradient id="SVGID_3_" gradientUnits="userSpaceOnUse" x1="4.2652" y1="7.3927" x2="5.5024" y2="7.3927">
    <stop offset="0" stop-color="#002747"/>
    <stop offset=".4644" stop-color="#001e3e"/>
    <stop offset=".9944" stop-color="#000d2d"/>
  </linearGradient>
  <path d="M5.48 7.06c-.01-.01-.04-.01-.05 0-.09.3-.38.35-.55.35-.17 0-.46-.05-.55-.35-.01-.02-.03-.02-.05 0-.02.02-.01.06-.01.17 0 .47.59.51.62.51.03 0 .62-.04.62-.51-.01-.11 0-.15-.03-.17z" fill="url(#SVGID_3_)"/>
  <linearGradient id="SVGID_4_" gradientUnits="userSpaceOnUse" x1=".3287" y1="7.1147" x2="9.4162" y2="7.1147">
    <stop offset="0" stop-color="#002747"/>
    <stop offset=".4644" stop-color="#001e3e"/>
    <stop offset=".9944" stop-color="#000d2d"/>
  </linearGradient>
  <path d="M9.38 5.39c0-.02-.01-.03-.03-.03-.08-.01-.16 0-.23.01l-.16.04c-.02 0-.05.01-.07.01h-.17c-.01 0-.01-.01-.01-.01v-.05c0-.04.01-.07.02-.11l.01-.04c.01-.03.01-.07 0-.1 0-.05-.03-.09-.07-.12l-.08-.09-.01-.01-.09-.07c-.03-.02-.06-.04-.1-.05h-.08c-.06.01-.11.05-.13.11l-.19.44-.03.06-.25.3-.24-.34c-.05-.06-.06-.14-.05-.22l.06-.29c.07-.34.18-.67.33-.98.06-.12.09-.24.09-.37 0-.05-.01-.1-.04-.15-.05-.1-.13-.18-.22-.23-.03-.02-.06-.02-.1-.02-.07 0-.13.01-.19.04l-.54.24c-.12.06-.23.13-.34.21l-.14.12c-.07.05-.13.11-.18.17l-.13.16c-.07.09-.13.18-.19.28l-.1.16-.37-.04-.32-.86c-.02-.06-.04-.11-.07-.16l-.04-.05c-.01-.01-.02-.03-.04-.04V3.3h-.04v.01l-.04.04-.03.05c-.03.05-.06.1-.08.16l-.32.86-.37.04-.1-.16c-.05-.1-.12-.19-.19-.28l-.13-.16c-.05-.06-.11-.12-.17-.17l-.15-.12c-.1-.08-.22-.15-.34-.21l-.54-.24c-.06-.03-.12-.04-.19-.04-.03 0-.06.01-.09.02-.1.05-.18.14-.23.24-.02.04-.03.09-.03.13 0 .13.03.25.08.37.15.32.27.65.33.99l.06.29c.02.08 0 .16-.05.22l-.24.34-.25-.3-.03-.06-.18-.44c-.02-.06-.07-.1-.14-.11h-.08c-.03.01-.07.03-.1.05l-.09.07-.01.01-.08.09c-.03.03-.06.07-.08.12-.01.03-.01.06 0 .1l.01.03c.01.04.02.08.02.11v.05c0 .01-.01.01-.01.01H.84c-.02 0-.05 0-.07-.01l-.14-.03C.55 5.36.47 5.35.4 5.36c-.02 0-.03.02-.03.03-.03.06-.04.13-.04.2v.08c0 .09.02.17.04.26.02.03.04.05.07.07l.16.07.14.05c.02.01.04.03.03.05v.01c0 .01 0 .01-.01.01L.7 6.2c-.02 0-.04.01-.05.02l-.03.01c-.07.02-.12.07-.16.13 0 .01-.01.03-.01.04 0 .03.01.07.01.11.01.1.03.19.06.28l.02.05c.02.06.06.09.11.1H.72l.09-.02h.03l.01.01c.03.01.04.05.03.07 0 0 0 .01-.01.01l-.06.02c-.01 0-.03.01-.04.02-.03.04-.05.08-.04.13 0 .02.01.05.02.06.02.04.07.12.1.18.02.03.04.04.07.04h.4c.04 0 .08.02.11.04.05.05.09.1.11.15l.03.06c.01.02.01.03.01.05l-.08.52v.18c0 .07.02.13.06.19l.3.47c.08.13.18.25.28.36l.49.53c.11.12.23.23.36.33l.27.21c.12.09.24.17.37.24l.13.07c.18.09.36.17.56.23.1.03.19.06.2.06.01 0 .32.03.35.03.04 0 .34-.03.35-.03.01 0 .1-.03.2-.06.19-.06.38-.13.56-.23l.13-.07c.13-.07.26-.15.37-.24l.27-.21c.13-.1.25-.21.36-.33l.49-.54c.1-.11.2-.23.28-.36l.3-.47c.04-.06.06-.12.06-.19v-.12-.06l-.08-.51c0-.02 0-.04.01-.05l.03-.06c.03-.05.06-.1.11-.14.03-.03.07-.04.11-.04h.4c.03 0 .06-.02.07-.04L9 7.25c.01-.02.02-.05.02-.07 0-.05-.02-.09-.05-.13-.01-.01-.02-.02-.03-.02l-.07-.02s-.01 0-.01-.01c-.01-.03 0-.06.03-.07h.04l.09.02H9.09c.06-.02.1-.05.11-.1l.02-.05c.03-.09.05-.19.06-.28l.01-.12c0-.02 0-.03-.01-.05-.03-.05-.09-.1-.15-.12l-.03-.01c-.02-.01-.04-.01-.06-.02l-.05-.01c-.01 0-.01-.01-.01-.01v-.01c0-.02.01-.05.03-.05l.14-.05.16-.07c.03-.01.05-.04.06-.07.02-.08.04-.17.04-.26v-.08c.01-.07 0-.13-.03-.2zm-2.9.38c.02-.01.04-.02.06 0 .52.33.62.85.64.97 0 .02-.01.03-.02.04L6 7.37s-.06.01-.06-.4c-.01-.7.42-1.11.54-1.2zM4.13 7.16c0-.3.74-1.09.74-1.09.02-.02.03 0 .03 0s.74.79.74 1.09v.07c0 .1-.02.2-.07.28-.04.07-.09.14-.17.18-.2.13-.36.18-.5.18h-.03c-.14 0-.3-.06-.51-.18-.08-.04-.13-.11-.16-.17-.05-.09-.07-.19-.07-.29v-.07zm-.92-1.4c.02-.01.04-.01.06 0 .12.1.54.5.54 1.21 0 .41-.06.4-.06.4l-1.16-.6c-.01-.01-.02-.02-.02-.04.02-.12.12-.64.64-.97zm1.75 4.68h-.17c-.29 0-1.22-.14-2.32-1.99l.3-.83.18.19s-.08.35-.07.61c.02.28.07.39.17.39s.36-.17.58-.46c0 0 .5.41 1.24.41s1.24-.41 1.24-.41c.22.29.48.46.58.46.1 0 .16-.12.17-.38.02-.27-.06-.61-.06-.61l.18-.19.3.83c-1.1 1.83-2.04 1.98-2.32 1.98z" fill="url(#SVGID_4_)"/>
  <linearGradient id="SVGID_5_" gradientUnits="userSpaceOnUse" x1="14.997" y1="6.5218" x2="15.4949" y2="6.5218">
    <stop offset="0" stop-color="#002747"/>
    <stop offset=".4644" stop-color="#001e3e"/>
    <stop offset=".9944" stop-color="#000d2d"/>
  </linearGradient>
  <path d="M15.25 6.24c.03.03.25.25.25.39s-.23.18-.25.18c-.03-.01-.25-.05-.25-.18 0-.14.21-.36.25-.39" fill="url(#SVGID_5_)"/>
  <linearGradient id="SVGID_6_" gradientUnits="userSpaceOnUse" x1="14.7972" y1="7.0157" x2="15.6947" y2="7.0157">
    <stop offset="0" stop-color="#002747"/>
    <stop offset=".4644" stop-color="#001e3e"/>
    <stop offset=".9944" stop-color="#000d2d"/>
  </linearGradient>
  <path d="M15.65 6.76c-.01-.01-.04-.01-.05 0-.04.05-.18.18-.35.18-.17 0-.31-.13-.35-.18-.01-.01-.03-.02-.05 0-.02.02-.05.07-.05.17 0 .34.45.34.45.34s.45 0 .45-.34c-.01-.1-.03-.15-.05-.17z" fill="url(#SVGID_6_)"/>
  <linearGradient id="SVGID_7_" gradientUnits="userSpaceOnUse" x1="14.6274" y1="7.3927" x2="15.8646" y2="7.3927">
    <stop offset="0" stop-color="#002747"/>
    <stop offset=".4644" stop-color="#001e3e"/>
    <stop offset=".9944" stop-color="#000d2d"/>
  </linearGradient>
  <path d="M15.85 7.06c-.01-.01-.04-.01-.05 0-.09.3-.38.35-.55.35-.17 0-.46-.05-.55-.35-.01-.02-.03-.02-.05 0-.02.02-.02.06-.02.17 0 .47.59.51.62.51.03 0 .62-.04.62-.51-.01-.11 0-.15-.02-.17z" fill="url(#SVGID_7_)"/>
  <linearGradient id="SVGID_8_" gradientUnits="userSpaceOnUse" x1="10.6908" y1="7.1147" x2="19.7783" y2="7.1147">
    <stop offset="0" stop-color="#002747"/>
    <stop offset=".4644" stop-color="#001e3e"/>
    <stop offset=".9944" stop-color="#000d2d"/>
  </linearGradient>
  <path d="M19.74 5.39c0-.02-.01-.03-.03-.03-.08-.01-.16-.01-.23.01l-.15.03c-.02 0-.05.01-.07.01h-.17c-.01 0-.01-.01-.01-.01v-.05c0-.04.01-.07.02-.11l.01-.04c.01-.03.01-.07 0-.1-.02-.05-.05-.09-.08-.12l-.08-.08-.01-.01-.09-.07c-.03-.02-.06-.04-.1-.05l-.03-.01h-.05c-.06.01-.11.05-.14.11l-.18.45c-.01.02-.02.04-.03.05l-.25.3-.24-.34c-.05-.06-.06-.15-.05-.22l.06-.29c.07-.34.18-.67.33-.98.06-.12.09-.24.09-.37 0-.05-.01-.1-.04-.15-.05-.09-.13-.17-.22-.22-.03-.02-.06-.02-.09-.02-.07 0-.13.01-.19.04l-.54.25c-.12.06-.24.13-.34.21l-.15.12c-.06.05-.12.11-.17.17l-.13.16c-.07.08-.14.17-.19.27l-.1.16-.37-.04-.33-.86c-.02-.05-.05-.1-.08-.15l-.03-.05c-.01-.02-.02-.03-.04-.04v-.01h-.04v.01c-.02.01-.03.02-.04.04l-.03.04c-.03.05-.06.1-.08.15l-.32.87-.37.04-.1-.16c-.06-.1-.12-.19-.19-.28l-.13-.16c-.05-.06-.11-.12-.17-.17l-.15-.12c-.1-.08-.22-.15-.34-.21l-.54-.25c-.06-.03-.13-.04-.19-.04-.03 0-.06.01-.09.02-.1.05-.18.14-.23.24-.02.04-.03.09-.03.13 0 .13.03.25.08.37.15.31.26.65.33.99l.06.29c.02.08 0 .16-.05.22l-.23.35-.25-.3c-.01-.02-.02-.03-.03-.05l-.18-.45c-.02-.06-.07-.1-.14-.11h-.05l-.03.01c-.04.01-.07.02-.1.05l-.09.07-.01.01-.08.09c-.03.04-.06.08-.08.12-.01.03-.01.06 0 .1l.01.04c.01.04.02.08.02.11v.05c0 .01-.01.01-.01.01h-.17c-.02 0-.05 0-.07-.01l-.15-.03c-.08-.02-.15-.02-.23-.01-.02 0-.03.02-.03.03-.03.06-.04.13-.04.2v.08c0 .09.02.17.04.26.02.01.04.03.07.05l.16.07.14.05c.02.01.04.03.03.05v.01c0 .01 0 .01-.01.01l-.05.01c-.02 0-.04.01-.05.02l-.03.01c-.06.02-.12.07-.16.13-.01.01-.01.03-.01.05 0 .03.01.07.01.11.01.1.03.19.06.28l.02.05c.02.05.06.08.1.09H11.08l.09-.02h.03l.01.01c.03.01.04.04.03.07 0 0 0 .01-.01.01l-.07.02c-.01 0-.03.01-.04.02-.03.04-.05.08-.05.13 0 .02.01.05.02.06.02.04.07.12.1.18.02.03.04.04.07.04h.4c.04 0 .08.02.11.04.04.04.08.09.11.14l.03.06c.01.02.01.03.01.05l-.09.51v.18c0 .07.02.13.06.19l.3.47c.08.13.18.25.28.36l.53.53c.11.12.23.23.36.33l.27.21c.12.09.24.17.37.24l.13.07c.18.09.36.17.56.23.1.03.19.06.2.06.01 0 .32.03.35.03.04 0 .34-.03.35-.03.01 0 .1-.03.2-.06.19-.06.38-.13.56-.23l.13-.07c.13-.07.26-.15.37-.24l.27-.21c.13-.1.25-.21.36-.33l.49-.53c.1-.11.2-.23.28-.36l.3-.47c.04-.06.06-.12.06-.19v-.12-.06l-.09-.51c0-.02 0-.04.01-.05l.03-.06c.03-.05.06-.1.11-.14.03-.03.07-.04.11-.04h.4c.03 0 .06-.02.07-.04l.1-.17c.01-.02.02-.05.02-.07 0-.05-.02-.09-.05-.13-.01-.01-.02-.02-.04-.02l-.07-.02s-.01 0-.01-.01c-.01-.03 0-.06.03-.07l.01-.01h.03l.09.02H19.43c.05-.01.09-.04.1-.09l.02-.05c.03-.09.05-.19.06-.28l.01-.11c0-.02 0-.03-.01-.05-.04-.06-.09-.1-.16-.13l-.03-.01c-.02-.01-.04-.01-.05-.02l-.05-.01c-.01 0-.01-.01-.01-.01v-.01c0-.02.01-.05.03-.05l.14-.05.19-.07c.03-.01.05-.04.06-.07.02-.08.04-.17.04-.26v-.08c.01-.07 0-.13-.03-.2zm-2.9.38c.02-.01.04-.02.06 0 .52.33.62.85.64.97 0 .02-.01.03-.02.04l-1.16.6s-.06.01-.06-.4c-.01-.71.42-1.12.54-1.21zm-2.35 1.39c0-.3.74-1.09.74-1.09.02-.02.03 0 .03 0s.74.79.74 1.09v.07c0 .1-.02.2-.07.28-.04.06-.09.13-.16.18-.2.12-.36.18-.51.18h-.03c-.14 0-.3-.06-.51-.18-.08-.05-.13-.11-.16-.18-.05-.09-.07-.19-.07-.28v-.07zm-.92-1.4c.02-.01.04-.01.06 0 .12.1.54.5.54 1.21 0 .41-.06.4-.06.4l-1.16-.6c-.01-.01-.02-.02-.02-.04.02-.12.12-.64.64-.97zm1.75 4.68h-.17c-.29 0-1.22-.14-2.32-1.99l.3-.83.18.19s-.08.35-.07.61c.01.27.07.38.17.38s.36-.17.58-.46c0 0 .5.41 1.24.41s1.24-.41 1.24-.41c.22.29.48.46.58.46s.16-.12.17-.38c.01-.27-.07-.61-.07-.61l.18-.19.3.83c-1.09 1.84-2.02 1.99-2.31 1.99z" fill="url(#SVGID_8_)"/>
  <g>
    <linearGradient id="SVGID_9_" gradientUnits="userSpaceOnUse" x1="25.3592" y1="6.5218" x2="25.857" y2="6.5218">
      <stop offset="0" stop-color="#002747"/>
      <stop offset=".4644" stop-color="#001e3e"/>
      <stop offset=".9944" stop-color="#000d2d"/>
    </linearGradient>
    <path d="M25.61 6.24c.03.03.25.25.25.39s-.23.18-.25.18c-.02 0-.25-.04-.25-.18 0-.14.21-.36.25-.39" fill="url(#SVGID_9_)"/>
    <linearGradient id="SVGID_10_" gradientUnits="userSpaceOnUse" x1="25.1594" y1="7.0157" x2="26.0568" y2="7.0157">
      <stop offset="0" stop-color="#002747"/>
      <stop offset=".4644" stop-color="#001e3e"/>
      <stop offset=".9944" stop-color="#000d2d"/>
    </linearGradient>
    <path d="M26.01 6.76c-.01-.01-.04-.01-.05 0-.04.05-.18.18-.35.18-.17 0-.31-.13-.35-.18-.01-.01-.03-.02-.05 0-.02.02-.05.07-.05.17 0 .34.45.34.45.34s.45 0 .45-.34c0-.1-.03-.15-.05-.17z" fill="url(#SVGID_10_)"/>
    <linearGradient id="SVGID_11_" gradientUnits="userSpaceOnUse" x1="24.9895" y1="7.3927" x2="26.2267" y2="7.3927">
      <stop offset="0" stop-color="#002747"/>
      <stop offset=".4644" stop-color="#001e3e"/>
      <stop offset=".9944" stop-color="#000d2d"/>
    </linearGradient>
    <path d="M26.21 7.06c-.01-.01-.04-.01-.05 0-.09.3-.38.35-.55.35-.17 0-.46-.05-.55-.35-.01-.02-.03-.02-.05 0-.02.02-.02.06-.02.17 0 .47.59.51.62.51.03 0 .62-.04.62-.51 0-.11 0-.15-.02-.17z" fill="url(#SVGID_11_)"/>
    <linearGradient id="SVGID_12_" gradientUnits="userSpaceOnUse" x1="21.053" y1="7.1147" x2="30.1404" y2="7.1147">
      <stop offset="0" stop-color="#002747"/>
      <stop offset=".4644" stop-color="#001e3e"/>
      <stop offset=".9944" stop-color="#000d2d"/>
    </linearGradient>
    <path d="M30.1 5.39c0-.02-.01-.03-.03-.03-.08-.01-.16-.01-.23.01l-.15.03c-.02 0-.05.01-.07.01h-.17c-.01 0-.01-.01-.01-.01v-.05c0-.04.01-.07.02-.11l.01-.04c.01-.03.01-.07 0-.1-.02-.05-.05-.09-.08-.12l-.08-.08-.01-.01-.09-.07c-.03-.02-.06-.04-.1-.05l-.03-.01h-.05c-.06.01-.11.05-.14.11l-.18.45c-.01.02-.02.04-.03.05l-.25.3-.24-.34c-.05-.06-.06-.15-.05-.22l.06-.29c.07-.34.18-.67.33-.98.06-.12.09-.24.09-.37 0-.05-.01-.1-.04-.15-.05-.1-.13-.18-.22-.23-.03-.02-.06-.02-.09-.02-.07 0-.13.01-.19.04l-.54.25c-.12.06-.24.13-.34.21l-.15.12c-.06.05-.12.11-.17.17l-.13.16c-.07.09-.13.18-.19.28l-.1.16-.37-.04-.32-.87c-.02-.05-.05-.1-.08-.15l-.03-.05c-.01-.02-.02-.03-.04-.04V3.3h-.04v.01c-.02.01-.03.02-.04.04l-.04.05c-.03.05-.06.1-.08.15l-.32.87-.37.04-.1-.16c-.06-.1-.12-.19-.19-.28l-.13-.16c-.05-.06-.11-.12-.17-.17L24 3.57c-.1-.08-.22-.15-.34-.21l-.54-.25c-.06-.03-.13-.04-.19-.04-.03 0-.06.01-.09.02-.1.05-.18.14-.23.24-.02.04-.03.09-.03.13 0 .13.03.25.08.37.15.31.26.65.33.99l.06.29c.02.08 0 .16-.05.22l-.24.34-.25-.3c-.01-.02-.02-.03-.03-.05l-.18-.45c-.02-.06-.07-.1-.14-.11h-.05l-.03.01c-.04.01-.07.02-.1.05l-.09.07-.01.01-.08.09c-.03.04-.06.08-.08.12-.01.03-.01.06 0 .1l.01.04c.01.04.02.08.02.11v.05c0 .01-.01.01-.01.01h-.17c-.02 0-.05 0-.07-.01l-.15-.03c-.08-.02-.15-.02-.23-.01-.02 0-.03.02-.03.03-.03.06-.04.13-.04.2v.08c0 .09.02.17.04.26.01.03.03.05.06.07l.16.07.14.05c.02.01.04.03.03.05v.01c0 .01 0 .01-.01.01h-.04c-.02 0-.04.01-.05.02l-.03.01c-.06.02-.12.07-.16.13-.01.01-.01.03-.01.05 0 .03.01.07.01.11.01.1.03.19.06.28l.02.05c.02.05.06.08.1.09H21.44l.09-.02h.03l.01.01c.03.01.04.04.03.07 0 0 0 .01-.01.01l-.07.02c-.01 0-.03.01-.04.02-.03.04-.05.08-.05.13 0 .02.01.05.02.06.02.04.07.12.1.18.02.03.04.04.07.04h.4c.04 0 .08.02.11.04.04.04.08.09.11.14l.03.06c.01.02.01.03.01.05l-.09.51v.18c0 .07.02.13.06.19l.3.47c.08.13.18.25.28.36l.49.53c.11.12.23.23.36.33l.27.21c.12.09.24.17.37.24l.13.07c.18.09.36.17.56.23.1.03.19.06.2.06.01 0 .32.03.35.03.04 0 .34-.03.35-.03.01 0 .1-.03.2-.06.19-.06.38-.13.56-.23l.13-.07c.13-.07.26-.15.37-.24l.27-.21c.13-.1.25-.21.36-.33l.49-.53c.1-.11.2-.23.28-.36l.3-.47c.04-.06.06-.12.06-.19v-.12-.06l-.09-.51c0-.02 0-.04.01-.05l.03-.06c.03-.05.06-.1.11-.14.03-.03.07-.04.11-.04h.4c.03 0 .06-.02.07-.04l.1-.17c.01-.02.02-.05.02-.07 0-.05-.02-.09-.05-.13-.01-.01-.02-.02-.04-.02l-.07-.02s-.01 0-.01-.01c-.01-.03 0-.06.03-.07l.01-.01h.03l.09.02H29.75c.05-.01.09-.04.1-.09l.02-.05c.03-.09.05-.19.06-.28l.01-.11c0-.02 0-.03-.01-.05-.04-.06-.09-.1-.16-.13l-.03-.01c-.02-.01-.04-.01-.05-.02l-.05-.01c-.01 0-.01-.01-.01-.01v-.01c0-.02.01-.05.03-.05l.14-.05.23-.07c.03-.01.05-.04.06-.07.02-.08.04-.17.04-.26v-.08c.01-.07 0-.13-.03-.2zm-2.9.38c.02-.01.04-.02.06 0 .52.33.62.85.64.97 0 .02-.01.03-.02.04l-1.16.6s-.06.01-.06-.4c0-.71.42-1.12.54-1.21zm-2.35 1.39c0-.3.74-1.09.74-1.09.02-.02.03 0 .03 0s.74.79.74 1.09v.07c0 .1-.02.2-.07.28-.04.06-.09.13-.16.18-.2.12-.36.18-.51.18h-.03c-.14 0-.3-.06-.51-.18-.08-.05-.13-.11-.16-.18-.05-.09-.07-.19-.07-.28v-.07zm-.92-1.4c.02-.01.04-.01.06 0 .12.1.54.5.54 1.21 0 .41-.06.4-.06.4l-1.16-.6c-.01-.01-.02-.02-.02-.04.02-.12.12-.64.64-.97zm1.75 4.68h-.17c-.29 0-1.22-.14-2.32-1.99l.3-.83.18.19s-.08.35-.07.61c.01.27.07.38.17.38s.36-.17.58-.46c0 0 .5.41 1.24.41s1.24-.41 1.24-.41c.22.29.48.46.58.46.1 0 .16-.12.17-.38.01-.27-.07-.61-.07-.61l.18-.19.31.83c-1.1 1.84-2.03 1.99-2.32 1.99z" fill="url(#SVGID_12_)"/>
  </g>
  <g>
    <linearGradient id="SVGID_13_" gradientUnits="userSpaceOnUse" x1="35.7213" y1="6.5218" x2="36.2192" y2="6.5218">
      <stop offset="0" stop-color="#002747"/>
      <stop offset=".4644" stop-color="#001e3e"/>
      <stop offset=".9944" stop-color="#000d2d"/>
    </linearGradient>
    <path d="M35.97 6.24c.03.03.25.25.25.39s-.23.18-.25.18c-.02 0-.25-.04-.25-.18 0-.14.22-.36.25-.39" fill="url(#SVGID_13_)"/>
    <linearGradient id="SVGID_14_" gradientUnits="userSpaceOnUse" x1="35.5215" y1="7.0157" x2="36.419" y2="7.0157">
      <stop offset="0" stop-color="#002747"/>
      <stop offset=".4644" stop-color="#001e3e"/>
      <stop offset=".9944" stop-color="#000d2d"/>
    </linearGradient>
    <path d="M36.37 6.76c-.01-.01-.04-.01-.05 0-.04.05-.18.18-.35.18s-.31-.13-.35-.18c-.01-.01-.03-.02-.05 0-.02.02-.05.07-.05.17 0 .34.45.34.45.34s.45 0 .45-.34c0-.1-.03-.15-.05-.17z" fill="url(#SVGID_14_)"/>
    <linearGradient id="SVGID_15_" gradientUnits="userSpaceOnUse" x1="35.3516" y1="7.3927" x2="36.5889" y2="7.3927">
      <stop offset="0" stop-color="#002747"/>
      <stop offset=".4644" stop-color="#001e3e"/>
      <stop offset=".9944" stop-color="#000d2d"/>
    </linearGradient>
    <path d="M36.57 7.06c-.01-.01-.04-.01-.05 0-.09.3-.38.35-.55.35-.17 0-.46-.05-.55-.35-.01-.02-.03-.02-.05 0-.02.02-.02.06-.02.17 0 .47.59.51.62.51.03 0 .62-.04.62-.51 0-.11 0-.15-.02-.17z" fill="url(#SVGID_15_)"/>
    <linearGradient id="SVGID_16_" gradientUnits="userSpaceOnUse" x1="31.4151" y1="7.1147" x2="40.5026" y2="7.1147">
      <stop offset="0" stop-color="#002747"/>
      <stop offset=".4644" stop-color="#001e3e"/>
      <stop offset=".9944" stop-color="#000d2d"/>
    </linearGradient>
    <path d="M40.46 5.39c0-.02-.01-.03-.03-.03-.08-.01-.16-.01-.23.01l-.15.03c-.02 0-.05.01-.07.01h-.17c-.01 0-.01-.01-.01-.01v-.05c0-.04.01-.07.02-.11l.01-.04c.01-.03.01-.07 0-.1-.02-.05-.05-.09-.08-.12l-.08-.08-.01-.01-.09-.07c-.03-.02-.06-.04-.1-.05l-.03-.01h-.05c-.06.01-.11.05-.14.11l-.18.45c-.01.02-.02.04-.03.05l-.25.3-.24-.34c-.05-.06-.06-.15-.05-.22l.06-.29c.07-.34.18-.67.33-.98.06-.12.09-.24.09-.37 0-.05-.01-.1-.04-.15-.05-.1-.13-.18-.22-.23-.03-.02-.06-.02-.09-.02-.07 0-.13.01-.19.04l-.54.25c-.12.06-.24.13-.34.21l-.15.12c-.06.05-.12.11-.17.17l-.13.16c-.07.09-.13.18-.19.28l-.1.16-.37-.04-.32-.87c-.02-.05-.05-.1-.08-.15l-.03-.05c-.01-.01-.02-.03-.04-.04V3.3h-.04v.01c-.02.01-.03.02-.04.04l-.04.05c-.03.05-.06.1-.08.15l-.32.87-.37.04L35 4.3c-.06-.1-.12-.19-.19-.28l-.13-.16c-.05-.06-.11-.12-.17-.17l-.15-.12c-.1-.08-.22-.15-.34-.21l-.54-.25c-.06-.03-.13-.04-.19-.04-.03 0-.06.01-.09.02-.1.05-.18.14-.23.24-.02.04-.03.09-.03.13 0 .13.03.25.08.37.15.31.26.65.33.99l.06.29c.02.08 0 .16-.05.22l-.24.34-.25-.3c-.01-.02-.02-.03-.03-.05l-.18-.45c-.02-.06-.07-.1-.14-.11h-.05l-.03.01c-.04.01-.07.02-.1.05l-.09.07-.01.01-.08.09c-.03.04-.06.08-.08.12-.01.03-.01.06 0 .1l.01.04c.01.04.02.08.02.11v.05c0 .01-.01.01-.01.01h-.17c-.02 0-.05 0-.07-.01l-.15-.03c-.08-.02-.15-.02-.23-.01-.02 0-.03.02-.03.03-.03.06-.04.13-.04.2v.08c0 .09.02.17.04.26.01.03.03.05.06.07l.16.07.14.05c.02.01.04.03.03.05v.01c0 .01 0 .01-.01.01h-.04c-.02 0-.04.01-.05.02l-.03.01c-.06.02-.12.07-.16.13-.01.01-.01.03-.01.05 0 .03.01.07.01.11.01.1.03.19.06.28l.02.05c.02.05.06.08.1.09H31.8l.09-.02h.03l.01.01c.03.01.04.04.03.07 0 0 0 .01-.01.01l-.07.02c-.01 0-.03.01-.04.02-.03.04-.05.08-.05.13 0 .02.01.05.02.06.02.04.07.12.1.18.02.03.04.04.07.04h.4c.04 0 .08.02.11.04.04.04.08.09.11.14l.03.06c.01.02.01.03.01.05l-.09.51v.18c0 .07.02.13.06.19l.3.47c.08.13.18.25.28.36l.49.53c.11.12.23.23.36.33l.27.21c.12.09.24.17.37.24l.13.07c.18.09.36.17.56.23.1.03.19.06.2.06.01 0 .32.03.35.03.04 0 .34-.03.35-.03.01 0 .1-.03.2-.06.19-.06.38-.13.56-.23l.13-.07c.13-.07.26-.15.37-.24l.27-.21c.13-.1.25-.21.36-.33l.49-.53c.1-.11.2-.23.28-.36l.3-.47c.04-.06.06-.12.06-.19v-.12-.06l-.09-.51c0-.02 0-.04.01-.05l.03-.06c.03-.05.06-.1.11-.14.03-.03.07-.04.11-.04h.4c.03 0 .06-.02.07-.04l.1-.17c.01-.02.02-.05.02-.07 0-.05-.02-.09-.05-.13-.01-.01-.02-.02-.04-.02l-.07-.02s-.01 0-.01-.01c-.01-.03 0-.06.03-.07l.01-.01h.03l.09.02H40.11c.05-.01.09-.04.1-.09l.02-.05c.03-.09.05-.19.06-.28l.01-.11c0-.02 0-.03-.01-.05-.04-.06-.09-.1-.16-.13l-.03-.01c-.02-.01-.04-.01-.05-.02L40 6.19c-.01 0-.01-.01-.01-.01v-.01c0-.02.01-.05.03-.05l.14-.05.23-.07c.03-.01.05-.04.06-.07.02-.08.04-.17.04-.26v-.08c.02-.07 0-.13-.03-.2zm-2.9.38c.02-.01.04-.02.06 0 .52.33.62.85.64.97 0 .02-.01.03-.02.04l-1.16.6s-.06.01-.06-.4c0-.71.42-1.12.54-1.21zm-2.35 1.39c0-.3.74-1.09.74-1.09.02-.02.03 0 .03 0s.74.79.74 1.09v.07c0 .1-.02.2-.07.28-.04.06-.09.13-.16.18-.2.12-.36.18-.51.18h-.03c-.14 0-.3-.06-.51-.18-.08-.05-.13-.11-.16-.18-.05-.09-.07-.19-.07-.28v-.07zm-.92-1.4c.02-.01.04-.01.06 0 .12.1.54.5.54 1.21 0 .41-.06.4-.06.4l-1.16-.6c-.01-.01-.02-.02-.02-.04.02-.12.12-.64.64-.97zm1.75 4.68h-.17c-.29 0-1.22-.14-2.32-1.99l.3-.83.18.19s-.08.35-.07.61c.01.27.07.38.17.38s.36-.17.58-.46c0 0 .5.41 1.24.41s1.24-.41 1.24-.41c.22.29.48.46.58.46.1 0 .16-.12.17-.38.01-.27-.07-.61-.07-.61l.18-.19.3.83c-1.08 1.84-2.02 1.99-2.31 1.99z" fill="url(#SVGID_16_)"/>
  </g>
  <g>
    <path class="st19" d="M46.33 6.24c.03.03.25.25.25.39s-.23.18-.25.18c-.02 0-.25-.04-.25-.18 0-.14.22-.36.25-.39"/>
    <path class="st19" d="M46.73 6.76c-.01-.01-.04-.01-.05 0-.04.05-.18.18-.35.18-.17 0-.31-.13-.35-.18-.01-.01-.03-.02-.05 0-.02.02-.05.07-.05.17 0 .34.45.34.45.34s.45 0 .45-.34c0-.1-.02-.15-.05-.17z"/>
    <path class="st19" d="M46.93 7.06c-.01-.01-.04-.01-.05 0-.09.3-.38.35-.55.35-.17 0-.46-.05-.55-.35-.01-.02-.03-.02-.05 0-.02.02-.02.06-.02.17 0 .47.59.51.62.51.03 0 .62-.04.62-.51 0-.11 0-.15-.02-.17z"/>
    <path class="st19" d="M50.82 5.39c0-.02-.01-.03-.03-.03-.08-.01-.16-.01-.23.01l-.15.03c-.02 0-.05.01-.07.01h-.17c-.01 0-.01-.01-.01-.01v-.05c0-.04.01-.07.02-.11l.01-.04c.01-.03.01-.07 0-.1-.02-.05-.05-.09-.08-.12l-.07-.08-.01-.01-.09-.07c-.03-.02-.06-.04-.1-.05l-.03-.01h-.05c-.06.01-.11.05-.14.11l-.18.45c-.01.02-.02.04-.03.05l-.25.3-.24-.34c-.05-.06-.06-.15-.05-.22l.06-.29c.07-.34.18-.67.33-.98.06-.12.09-.24.09-.37 0-.05-.01-.1-.04-.15-.05-.1-.13-.18-.22-.23-.03-.02-.06-.02-.09-.02-.07 0-.13.01-.19.04l-.54.25c-.12.06-.24.13-.34.21l-.15.12c-.06.05-.12.11-.17.17l-.13.16c-.08.09-.14.18-.2.28l-.1.16-.37-.04-.32-.87c-.02-.05-.05-.1-.08-.15l-.03-.05c-.01-.02-.02-.03-.04-.04V3.3h-.04v.01c-.02.01-.03.02-.04.04l-.03.05c-.03.05-.06.1-.08.15l-.32.87-.37.04-.1-.16c-.06-.1-.12-.19-.19-.28l-.13-.16c-.05-.06-.11-.12-.17-.17l-.15-.12c-.1-.08-.22-.15-.34-.21l-.54-.25c-.06-.03-.13-.04-.19-.04-.03 0-.06.01-.09.02-.1.05-.18.14-.23.24-.03.05-.03.1-.03.14 0 .13.03.25.08.37.15.31.26.65.33.99l.06.29c.02.08 0 .16-.05.22l-.24.34-.25-.3c-.01-.02-.02-.03-.03-.05l-.18-.45c-.02-.06-.07-.1-.14-.11h-.08c-.04.01-.07.02-.1.05l-.09.07-.01.01-.08.09c-.03.04-.06.08-.08.12-.01.03-.01.06 0 .1l.01.04c.01.04.02.08.02.11v.05c0 .01-.01.01-.01.01h-.17c-.02 0-.05 0-.07-.01l-.15-.03c-.07-.02-.15-.03-.22-.02-.02 0-.03.02-.03.03-.03.06-.04.13-.04.2v.08c0 .09.02.17.04.26.01.03.03.05.06.07l.16.07.14.05c.02.01.04.03.03.05v.01c0 .01 0 .01-.01.01l-.05.01c-.02 0-.04.01-.05.02l-.03.01c-.07.02-.12.07-.16.13-.01.01-.01.03-.01.04 0 .03.01.07.01.11.01.1.03.19.06.28l.02.05c.02.05.06.08.1.09H42.16l.09-.02h.03l.01.01c.03.01.04.04.03.07 0 0 0 .01-.01.01l-.07.02c-.01 0-.03.01-.04.02-.03.04-.05.08-.05.13 0 .02.01.05.02.06.02.04.07.12.1.18.02.03.04.04.07.04h.4c.04 0 .08.02.11.04.04.04.08.09.11.14l.03.06c.01.02.01.03.01.05l-.09.51v.18c0 .07.02.13.06.19l.3.47c.08.13.18.25.28.36l.49.53c.11.12.23.23.36.33l.27.21c.12.09.24.17.37.24l.13.07c.18.09.36.17.56.23.1.03.19.06.2.06.01 0 .32.03.35.03.04 0 .34-.03.35-.03.01 0 .1-.03.2-.06.19-.06.38-.13.56-.23l.13-.07c.13-.07.26-.15.37-.24l.27-.21c.13-.1.25-.21.36-.33l.49-.53c.1-.11.2-.23.28-.36l.3-.47c.04-.06.06-.12.06-.19v-.12-.06l-.09-.51c0-.02 0-.04.01-.05l.03-.06c.03-.05.06-.1.11-.14.03-.03.07-.04.11-.04h.4c.03 0 .06-.02.07-.04l.1-.17c.01-.02.02-.05.02-.07 0-.05-.02-.09-.05-.13-.01-.01-.02-.02-.04-.02L50.25 7s-.01 0-.01-.01c-.01-.03 0-.06.03-.07l.01-.01h.03l.09.02H50.47c.05-.01.09-.04.1-.09l.02-.05c.03-.09.05-.19.06-.28l.01-.11c0-.02 0-.03-.01-.05-.04-.06-.09-.1-.16-.13l-.03-.01c-.02-.01-.04-.01-.05-.02l-.05-.01c-.01 0-.01-.01-.01-.01v-.01c0-.02.01-.05.03-.05l.14-.05.24-.06c.03-.01.05-.04.06-.07.02-.08.04-.17.04-.26v-.08c.01-.07-.01-.13-.04-.2zm-2.9.38c.02-.01.04-.02.06 0 .52.33.62.85.64.97 0 .02-.01.03-.02.04l-1.16.6s-.06.01-.06-.4c0-.71.43-1.12.54-1.21zm-2.35 1.39c0-.3.74-1.09.74-1.09.02-.02.03 0 .03 0s.74.79.74 1.09v.07c0 .1-.02.2-.07.28-.04.06-.09.13-.16.18-.2.12-.36.18-.51.18h-.03c-.14 0-.3-.06-.51-.18-.08-.05-.13-.11-.16-.18-.05-.09-.07-.19-.07-.28v-.07zm-.91-1.4c.02-.01.04-.01.06 0 .12.1.54.5.54 1.21 0 .41-.06.4-.06.4l-1.16-.6c-.01-.01-.02-.02-.02-.04.01-.12.12-.64.64-.97zm1.75 4.68h-.17c-.29 0-1.22-.14-2.32-1.99l.3-.83.18.19s-.08.35-.07.61c.01.27.07.38.17.38s.36-.17.58-.46c0 0 .5.41 1.24.41s1.24-.41 1.24-.41c.22.29.48.46.58.46s.16-.12.17-.38c.01-.27-.07-.61-.07-.61l.18-.19.3.83c-1.09 1.84-2.03 1.99-2.31 1.99z"/>
  </g>
  <linearGradient id="SVGID_17_" gradientUnits="userSpaceOnUse" x1="54.9067" y1="2.4431" x2="54.9067" y2="5.344">
    <stop offset="0" stop-color="#002747"/>
    <stop offset=".4644" stop-color="#001e3e"/>
    <stop offset=".9944" stop-color="#000d2d"/>
  </linearGradient>
  <radialGradient id="SVGID_18_" cx="55.7543" cy="8.5079" r="5.5699" fx="50.5492" fy="6.5252" gradientUnits="userSpaceOnUse">
    <stop offset="0" stop-color="#ddd"/>
    <stop offset=".2551" stop-color="#d0d0d0"/>
    <stop offset=".6155" stop-color="#c5c5c5"/>
    <stop offset="1" stop-color="#c1c1c1"/>
  </radialGradient>
  <linearGradient id="SVGID_19_" gradientUnits="userSpaceOnUse" x1="52.2154" y1="5.4299" x2="59.5105" y2="5.4299">
    <stop offset="0" stop-color="#002747"/>
    <stop offset=".4644" stop-color="#001e3e"/>
    <stop offset=".9944" stop-color="#000d2d"/>
  </linearGradient>
  <path class="st19" d="M64.32 7.25l2.57-1.42c.07-.04.14-.09.19-.16.03-.04.02-.1-.02-.13-.12-.09-.26-.15-.4-.18l-1.93-.43c-.2-.04-.4-.05-.6-.08l1.28-1.34c.07-.07.1-.16.1-.26v-.03c0-.05-.04-.09-.09-.09h-.04c-.15 0-.3.03-.43.1l-3.13 1.48c0-.06 0-.12.01-.18.02-.14.07-.27.13-.39.24-.44 1.15-2.16.28-1.59-.83.55-2.52 2.25-3.03 2.76-.34.13-.67.29-.99.49-.45.28-.86.62-1.21 1.02-.23.26-.42.56-.55.89-.09.22-.08.46.01.68l.13.32c.02.06.1.09.15.05l.27-.16c.11-.07.23-.11.36-.14l.32-.06c.02 0 .04-.01.06-.01l.08-.01c.44-.06.88-.06 1.32.02.15.15.57.72.57.72.03.04.09.05.13.02l.72-.57c.04-.03.11-.03.15 0l.31.23c.05.03.05.1 0 .14l-1.55 1.3c-.03.03-.07.03-.11.01l-.82-.56c-.01-.01-.03 0-.03.02v.92c0 .01 0 .02-.01.02l-.47.29c-.03.02-.03.06 0 .08l.64.31c.26.12.55.15.83.09l1.84-.44c.3-.07.6-.07.9-.03.28.04.55.14.8.28l1.96 1.07c.04.02.09.01.12-.02l.6-.57c.37-.35.69-.75.96-1.18l.23-.37c.02-.04.01-.09-.02-.12L64.72 8.5c-.25-.18-.48-.4-.66-.65-.06-.09-.08-.21-.03-.31.09-.14.18-.23.29-.29zm-3.75-.28l-.32.29c-.1.09-.22.15-.35.17-.08.01-.15.01-.23 0l-1.01-.15c-.04-.01-.06-.06-.03-.08l.8-.75c.13-.12.28-.21.44-.26l1.63-.53c.02-.01.03.02.02.03l-.23.4c-.2.33-.44.62-.72.88z"/>
  <g>
    <path class="st23" d="M53.09.36v13M54.18.36v13"/>
  </g>
</svg>